<svg width="51" height="51" viewBox="0 0 51 51" fill="none" xmlns="http://www.w3.org/2000/svg">
<path d="M25.0599 0.100098H25.6499C25.8726 0.181961 26.1173 0.181961 26.34 0.100098H26.9399C26.9521 0.114784 26.9675 0.126654 26.9847 0.134766C27.002 0.142877 27.0208 0.146973 27.0399 0.146973C27.059 0.146973 27.0779 0.142877 27.0952 0.134766C27.1125 0.126654 27.1277 0.114784 27.1399 0.100098H27.4299C28.1499 0.220098 28.88 0.20002 29.61 0.27002C31.6893 0.52969 33.7144 1.11695 35.61 2.01001C38.331 3.20268 40.8167 4.87246 42.95 6.94019C44.9209 8.82009 46.5816 11.0004 47.87 13.4001C49.0724 15.6382 49.9287 18.0454 50.4099 20.54C50.5298 21.2543 50.6001 21.9762 50.62 22.7002C50.7623 25.0333 50.7188 27.374 50.49 29.7002C50.177 31.922 49.519 34.0812 48.5399 36.1001C46.8461 39.7947 44.2947 43.0317 41.0978 45.5415C37.9009 48.0513 34.151 49.7615 30.1599 50.53C29.4353 50.6467 28.7037 50.7134 27.97 50.73C25.6734 50.8668 23.3697 50.8235 21.08 50.6001C18.904 50.3076 16.7879 49.6732 14.8099 48.7202C12.5533 47.7128 10.4656 46.3637 8.62 44.7202C6.33352 42.7354 4.41125 40.3665 2.93994 37.7202C1.72859 35.5277 0.845841 33.1692 0.319946 30.7202C0.162917 29.7274 0.0726945 28.7251 0.0499268 27.7202C0.0499268 27.6402 0.05 27.56 0 27.49V26.8C0.11 26.61 -7.32429e-05 26.4102 0.0499268 26.2202C0.0999268 26.0302 0.05 25.8702 0 25.7102V24.9202C0.1 24.7602 -7.32429e-05 24.5802 0.0499268 24.4102C0.0999268 24.2402 0.11 24.0201 0 23.8301V23.24C0.11 22.55 0.0999121 21.8501 0.159912 21.1501C0.415275 19.0271 1.00596 16.9579 1.90991 15.02C2.90837 12.6948 4.25737 10.5365 5.90991 8.62012C7.8921 6.33364 10.2617 4.41437 12.9099 2.9502C15.0985 1.72586 17.4579 0.835863 19.9099 0.310059C20.9031 0.157233 21.9053 0.0703665 22.9099 0.0500488C23.0299 0.0500488 23.1699 0.05 23.2899 0H23.59C23.6012 0.0145275 23.6156 0.0263304 23.6321 0.0344238C23.6486 0.0425173 23.6666 0.046875 23.6849 0.046875C23.7033 0.046875 23.7214 0.0425173 23.7379 0.0344238C23.7544 0.0263304 23.7687 0.0145275 23.7799 0H24.2799C24.3964 0.0685158 24.5256 0.112695 24.6597 0.129883C24.7937 0.14707 24.9299 0.137007 25.0599 0.100098Z" fill="#4065D5"/>
<path d="M27.84 21.75C27.7937 22.5939 27.8172 23.4401 27.91 24.2801C27.97 24.5601 27.9999 24.86 28.3299 24.95C28.6599 25.04 28.81 24.8001 28.98 24.6101C30.266 23.1702 31.2822 21.5102 31.98 19.71C32.39 18.71 32.4599 18.6299 33.5799 18.6299H37C37.2646 18.625 37.5292 18.6452 37.79 18.69C37.8904 18.6968 37.9876 18.728 38.0732 18.7808C38.1589 18.8336 38.2304 18.9066 38.2816 18.9932C38.3328 19.0798 38.3621 19.1776 38.3671 19.2781C38.372 19.3786 38.3525 19.4789 38.3101 19.5701C38.085 20.347 37.7189 21.0757 37.23 21.72L34.85 24.94L34.6 25.3001C34.06 26.1301 34.1 26.4101 34.79 27.1001C35.8865 28.112 36.8905 29.2195 37.79 30.41C37.9252 30.5969 38.0456 30.7943 38.15 31C38.241 31.1492 38.2912 31.3195 38.2958 31.4942C38.3004 31.6688 38.2592 31.8417 38.1763 31.9954C38.0933 32.1492 37.9716 32.2786 37.8231 32.3706C37.6746 32.4627 37.5045 32.5142 37.3299 32.5201C35.9982 32.6127 34.6617 32.6127 33.3299 32.5201C32.6963 32.4591 32.1097 32.1586 31.6899 31.68C31.0799 31.04 30.48 30.39 29.85 29.76C29.55 29.46 29.25 29.08 28.76 29.22C28.27 29.36 28.24 29.8601 28.14 30.2701C28.04 30.6801 28 31.1101 27.92 31.5301C27.9206 31.6693 27.8921 31.807 27.8363 31.9346C27.7805 32.0622 27.6987 32.1769 27.5961 32.271C27.4935 32.3652 27.3723 32.4369 27.2403 32.4815C27.1084 32.5261 26.9686 32.5426 26.8299 32.5301C25.4206 32.6761 23.9966 32.4938 22.6694 31.9976C21.3422 31.5014 20.148 30.7047 19.18 29.67C17.605 27.9003 16.261 25.9382 15.18 23.8301C14.46 22.5201 13.84 21.1601 13.23 19.8301C12.89 19.0901 13.12 18.71 13.92 18.71C15.09 18.71 16.26 18.71 17.43 18.71C17.7048 18.7079 17.9726 18.7957 18.1929 18.96C18.4131 19.1243 18.5737 19.3562 18.65 19.6202C19.2986 21.2618 20.1701 22.8061 21.24 24.21C21.4214 24.4647 21.6367 24.6934 21.88 24.8899C22.3 25.2099 22.57 25.1202 22.72 24.6202C22.953 23.6587 23.0273 22.6654 22.9399 21.68C22.9399 21.3 22.94 20.9301 22.88 20.5501C22.8915 20.2518 22.7975 19.9591 22.6146 19.7232C22.4318 19.4873 22.1717 19.3233 21.88 19.26C21.39 19.12 21.34 18.9401 21.71 18.5701C21.9818 18.3114 22.3355 18.1556 22.71 18.1299C24.0415 18.0325 25.3784 18.0325 26.71 18.1299C27.6 18.1299 27.89 18.5002 28.02 19.3702C28.055 19.7627 28.055 20.1575 28.02 20.5501C27.88 20.9301 27.86 21.32 27.84 21.75Z" fill="#FEFEFE"/>
</svg>
