<svg width="51" height="51" viewBox="0 0 51 51" fill="none" xmlns="http://www.w3.org/2000/svg">
<path d="M24.6699 0H26.45C26.57 0.09 26.7101 4.88274e-05 26.8401 0.0500488H27.1001C27.1801 0.0500488 27.2701 0.05 27.3401 0H27.54C28.08 0.09 28.6199 0.0701172 29.1599 0.120117C32.4001 0.485377 35.524 1.54242 38.3201 3.21997C42.6478 5.68978 46.1479 9.385 48.3799 13.8401C49.5669 16.1076 50.3647 18.5583 50.74 21.0901C50.85 21.8001 50.8099 22.53 50.9199 23.24V23.53C50.8399 23.62 50.9201 23.7301 50.8701 23.8301C50.8201 23.9301 50.8699 24.0399 50.9199 24.1299V24.52C50.8803 24.6151 50.8601 24.7171 50.8601 24.8201C50.8601 24.923 50.8803 25.0251 50.9199 25.1201V25.51C50.8806 25.6034 50.8604 25.7036 50.8604 25.8049C50.8604 25.9063 50.8806 26.0067 50.9199 26.1001V26.5C50.8599 26.56 50.9201 26.64 50.8701 26.72C50.8201 26.8 50.8699 26.91 50.9199 26.99V27.49C50.7699 28.61 50.78 29.7401 50.52 30.8501C49.6909 34.496 48.0779 37.9176 45.7932 40.8774C43.5086 43.8373 40.6071 46.2644 37.29 47.99C34.734 49.3494 31.9459 50.2177 29.0701 50.55C27.2938 50.6935 25.5103 50.7267 23.73 50.6499C21.2048 50.5765 18.7129 50.0552 16.3701 49.1101C10.4539 46.8066 5.59168 42.4071 2.70996 36.75C1.55204 34.5047 0.765247 32.0868 0.380005 29.5901C0.280005 28.8901 0.329951 28.18 0.199951 27.49V27.0901C0.259951 27.0301 0.199951 26.9599 0.199951 26.8799V26.71C0.199951 26.64 0.199951 26.56 0.199951 26.5V26.1001C0.23928 26.0067 0.259644 25.9063 0.259644 25.8049C0.259644 25.7036 0.23928 25.6034 0.199951 25.51V25.1201C0.239559 25.0251 0.26001 24.923 0.26001 24.8201C0.26001 24.7171 0.239559 24.6151 0.199951 24.52V24.1299C0.279951 24.0499 0.199951 23.9401 0.199951 23.8501C0.199951 23.7601 0.199951 23.6899 0.199951 23.6299V23.1399C0.349951 22.0699 0.339946 20.9799 0.569946 19.9199C1.39017 16.1857 3.0355 12.6824 5.38525 9.6665C7.73501 6.65058 10.7296 4.19847 14.1499 2.48999C16.4013 1.33383 18.8268 0.55348 21.3301 0.179932C22.0401 0.0799316 22.77 0.12 23.48 0H23.8799C23.9399 0.07 24.0301 4.88274e-05 24.1101 0.0500488H24.3C24.42 4.88274e-05 24.5599 0.09 24.6699 0Z" fill="#F10000"/>
<path d="M25.5901 34.5601C22.7838 34.5703 19.9791 34.4201 17.1899 34.1102C16.0127 33.9845 14.9231 33.429 14.1299 32.5501C13.5307 31.7766 13.2007 30.8285 13.1899 29.8501C12.7129 26.5026 12.767 23.1007 13.3501 19.7701C13.4223 19.3144 13.5852 18.8778 13.8291 18.4861C14.073 18.0945 14.3929 17.7558 14.77 17.49C15.5117 16.9282 16.3942 16.5821 17.3201 16.49C22.1976 15.9786 27.112 15.9217 32 16.3201C32.977 16.3309 33.9484 16.4687 34.8899 16.73C35.6753 16.9266 36.3826 17.3568 36.9182 17.9639C37.4539 18.571 37.7927 19.3262 37.8899 20.1299C38.4654 23.7778 38.4215 27.4967 37.76 31.1299C37.6052 31.7745 37.2806 32.366 36.8198 32.8426C36.3591 33.3192 35.7789 33.6637 35.1399 33.8401C34.1697 34.1486 33.158 34.3071 32.1399 34.3101C29.9999 34.4801 27.7701 34.5501 25.5901 34.5601Z" fill="#FEFEFE"/>
<path d="M22.53 30.1599V20.47L30.4399 25.3101L22.53 30.1599Z" fill="#F10000"/>
</svg>
