<svg width="52" height="52" viewBox="0 0 52 52" fill="none" xmlns="http://www.w3.org/2000/svg">
<path d="M51 25.6201V27C50.9296 27.1904 50.9296 27.3997 51 27.5901V28.48C50.88 29.14 50.9 29.82 50.84 30.48C50.64 32.3303 50.1543 34.1386 49.4 35.8401C48.4646 38.1884 47.1764 40.3802 45.58 42.3401C41.8021 47.0313 36.4904 50.2393 30.58 51.3999C29.8888 51.5132 29.1903 51.5769 28.49 51.5901C26.1573 51.7396 23.8163 51.6994 21.49 51.47C19.33 51.1687 17.2289 50.5381 15.26 49.6001C12.9967 48.5883 10.8996 47.2397 9.04006 45.6001C6.78121 43.643 4.8796 41.3081 3.42007 38.7C2.0971 36.3378 1.16186 33.7787 0.650049 31.1201C0.533429 30.4123 0.466525 29.6971 0.449976 28.98C0.302118 26.647 0.345601 24.3059 0.57998 21.98C0.860763 19.9039 1.45063 17.8815 2.32998 15.98C3.35185 13.6338 4.72796 11.4585 6.41006 9.53003C8.39324 7.24728 10.7627 5.33147 13.4101 3.87012C15.5978 2.64859 17.9579 1.76513 20.4101 1.25C21.4025 1.08978 22.405 0.999537 23.4101 0.97998C23.5401 0.97998 23.6801 0.979932 23.7901 0.929932H24.2901C24.4801 1.02993 24.68 0.92998 24.88 0.97998C25.08 1.02998 25.28 0.979932 25.47 0.929932H26.07C26.2927 1.01179 26.5373 1.01179 26.76 0.929932H27.25C27.2926 0.964012 27.3455 0.982666 27.4 0.982666C27.4546 0.982666 27.5075 0.964012 27.5501 0.929932H27.85C28.57 1.04993 29.3001 1.0301 30.0301 1.1001C32.1063 1.35705 34.1303 1.93384 36.0301 2.81006C38.4149 3.82611 40.62 5.22062 42.5601 6.93994C46.7494 10.5728 49.6448 15.4686 50.8101 20.8899C50.9604 21.8668 51.0505 22.8522 51.08 23.8401C51.08 23.9501 51.08 24.0699 51.08 24.1699V24.96C51.0235 25.0592 50.9874 25.1687 50.9737 25.282C50.9599 25.3953 50.9689 25.5103 51 25.6201Z" fill="#1C89DA"/>
<path d="M38 14C38.2237 13.989 38.447 14.0312 38.6513 14.123C38.8557 14.2148 39.0354 14.3537 39.1759 14.5283C39.3163 14.7029 39.4134 14.9081 39.4593 15.1274C39.5052 15.3467 39.4986 15.5738 39.4399 15.79L34.5799 37.25C34.5449 37.5375 34.4319 37.8098 34.2534 38.0378C34.0748 38.2658 33.8374 38.4408 33.5667 38.5437C33.2961 38.6466 33.0024 38.6736 32.7175 38.6218C32.4326 38.5701 32.1671 38.4415 31.9499 38.25L25.04 33.5601C24.73 33.3401 24.56 33.3201 24.27 33.5601C23.2 34.6101 22.1 35.6299 21.01 36.6599C20.8514 36.8723 20.6333 37.0331 20.3834 37.1216C20.1335 37.2101 19.863 37.2223 19.606 37.157C19.3491 37.0917 19.1173 36.9517 18.94 36.7546C18.7627 36.5576 18.6479 36.3124 18.61 36.05C17.78 33.61 16.94 31.17 16.12 28.72C16.0865 28.5876 16.016 28.4676 15.9168 28.3738C15.8177 28.2799 15.694 28.2161 15.56 28.1899C13.29 27.5899 11.02 26.9601 8.74996 26.3401C7.95996 26.1201 7.62998 25.4501 8.01998 24.8501C8.19745 24.6138 8.45227 24.4473 8.73995 24.3799L21.14 19.9199L37.14 14.1499C37.4182 14.06 37.7077 14.0096 38 14Z" fill="#FEFEFE"/>
<path d="M17.1999 28.1999C17.1875 28.0281 17.2317 27.8571 17.3255 27.7126C17.4194 27.5682 17.5579 27.4583 17.7199 27.3999L24.79 23.3501L33.0999 18.6001C33.2367 18.5134 33.3848 18.4459 33.54 18.3999C33.6042 18.3822 33.6724 18.3865 33.734 18.4119C33.7955 18.4372 33.8469 18.4823 33.88 18.54C33.9158 18.5962 33.9305 18.6633 33.9214 18.7292C33.9122 18.7952 33.8797 18.8556 33.8299 18.8999C33.7299 18.9999 33.61 19.0999 33.5 19.1899C29.24 22.6699 24.9799 26.1499 20.7199 29.6299C20.5296 29.767 20.3723 29.9452 20.2599 30.1511C20.1474 30.3571 20.0824 30.5857 20.0699 30.8201C19.9699 32.0001 19.8 33.1701 19.65 34.3501C19.65 34.4801 19.65 34.69 19.48 34.71C19.31 34.73 19.3 34.5099 19.26 34.3799L17.26 28.49C17.24 28.36 17.2199 28.2399 17.1999 28.1999Z" fill="#1C89DA"/>
</svg>
